# xmcd CD database file
#
# Track frame offsets:
#	150
#	12293
#	21828
#	40843
#	49748
#	53060
#	59335
#	77333
#	94790
#	104123
#	118948
#	129023
#	141160
#	160393
#	189585
#	199408
#
# Disc length: 2975 seconds
#
# Revision: 0
# Processed by: cddbd v1.5.2PL0 Copyright (c) Steve Scherf et al.
# Submitted via: CDex 1.51
#
DISCID=db0b9d10
DTITLE=MIKES DAVIS and MICHEL LEGRAND - DINGO
DYEAR=1991
DGENRE=Jazz
TTITLE0=01 - KIMBERLEY TRUMPET
TTITLE1=02 - THE ARRIVAL
TTITLE2=03 - CONCERT OF THE RUNAWAY
TTITLE3=04 - THE DEPARTURE
TTITLE4=05 - DINGO HOWL
TTITLE5=06 - LETTER AS HERO
TTITLE6=07 - TRUMPET CLEANING
TTITLE7=08 - THE DREAM
TTITLE8=09 - PARIS WALKING I
TTITLE9=10 - PARIS WALKING II 
TTITLE10=11 - KIMBERLEY TRUMPET IN PARIS
TTITLE11=12 - THE MUSIC ROOM
TTITLE12=13 - CLUB ENTRANCE
TTITLE13=14 - THE JAM SESSION
TTITLE14=15 - GOING HOME
TTITLE15=16 - SURPRISE! 
EXTD=YEAR: 1991
EXTT0=
EXTT1=
EXTT2=
EXTT3=
EXTT4=
EXTT5=
EXTT6=
EXTT7=
EXTT8=
EXTT9=
EXTT10=
EXTT11=
EXTT12=
EXTT13=
EXTT14=
EXTT15=
PLAYORDER=
